<?xml version="1.0" encoding="UTF-8" standalone="no"?>
<!DOCTYPE svg PUBLIC "-//W3C//DTD SVG 1.1//EN" "http://www.w3.org/Graphics/SVG/1.1/DTD/svg11.dtd">
<svg width="100%" height="100%" viewBox="0 0 99 84" version="1.1" xmlns="http://www.w3.org/2000/svg" xmlns:xlink="http://www.w3.org/1999/xlink" xml:space="preserve" xmlns:serif="http://www.serif.com/" style="fill-rule:evenodd;clip-rule:evenodd;stroke-linejoin:round;stroke-miterlimit:2;">
    <g transform="matrix(2.70833,0,0,2.70833,49.5,42)">
        <g id="challonge.svg" transform="matrix(1,0,0,1,-12,-12)">
            <clipPath id="_clip1">
                <rect x="0" y="0" width="24" height="24"/>
            </clipPath>
            <g clip-path="url(#_clip1)">
                <g id="path2403" transform="matrix(0.580987,0,0,0.580987,-128.607,-210.324)">
                    <path d="M260.783,369.138C256.429,369.606 252.068,370.007 247.727,370.566C242.09,371.291 236.478,372.174 231.039,373.909C228.549,374.702 226.136,375.658 224.027,377.24C221.478,379.153 220.681,381.676 221.962,384.327C223.863,388.263 225.895,392.135 227.861,396.04C228.056,396.429 228.25,396.445 228.603,396.22C230.216,395.19 231.708,394.002 232.909,392.524C233.577,391.703 234.076,390.718 234.503,389.742C234.73,389.221 234.64,388.561 234.702,387.868C233.954,388.211 233.398,388.532 232.802,388.729C230.71,389.423 228.962,388.242 228.854,386.051C228.743,383.808 229.883,382.198 231.671,381.027C233.296,379.961 235.172,379.462 237.024,378.958C239.958,378.162 242.933,377.504 245.703,376.2C245.8,376.154 245.924,376.164 246.056,376.145C246.079,376.254 246.113,376.33 246.11,376.405C246.075,377.891 245.445,379.099 244.197,379.874C242.963,380.641 241.613,381.222 240.355,381.956C239.729,382.32 239.077,382.751 238.648,383.312C237.833,384.378 238.473,385.62 239.805,385.628C240.596,385.639 241.393,385.5 242.18,385.374C242.755,385.281 242.906,385.328 242.801,385.91C242.612,386.945 242.416,387.994 242.066,388.982C241.696,390.023 241.142,391 240.669,392.005C244.714,391.993 255.81,385.422 257.324,382.112C257.134,382.165 256.966,382.215 256.796,382.258C255.583,382.557 254.365,382.714 253.116,382.453C251.365,382.088 250.599,380.594 251.418,379.017C252.157,377.594 253.418,376.712 254.788,375.964C257.168,374.661 259.441,373.21 261.205,371.104C261.734,370.472 262.183,369.774 262.669,369.107C262.63,369.06 262.591,369.013 262.552,368.965C261.962,369.021 261.372,369.073 260.783,369.138" style="fill:white;fill-rule:nonzero;"/>
                </g>
            </g>
        </g>
        <g id="challonge.svg1" serif:id="challonge.svg">
        </g>
    </g>
</svg>
