<?xml version="1.0" encoding="UTF-8" standalone="no"?>
<!DOCTYPE svg PUBLIC "-//W3C//DTD SVG 1.1//EN" "http://www.w3.org/Graphics/SVG/1.1/DTD/svg11.dtd">
<svg width="100%" height="100%" viewBox="0 0 99 84" version="1.1" xmlns="http://www.w3.org/2000/svg" xmlns:xlink="http://www.w3.org/1999/xlink" xml:space="preserve" xmlns:serif="http://www.serif.com/" style="fill-rule:evenodd;clip-rule:evenodd;stroke-linejoin:round;stroke-miterlimit:2;">
    <g transform="matrix(2.70833,0,0,2.70833,49.5,42)">
        <g id="googlesheets.svg" transform="matrix(1,0,0,1,-12,-12)">
            <path d="M24,2.4C24,1.075 22.925,0 21.6,0L2.4,0C1.075,0 0,1.075 0,2.4L0,21.6C0,22.925 1.075,24 2.4,24L21.6,24C22.925,24 24,22.925 24,21.6L24,2.4ZM11,8L11,3L8,3L8,8L3,8L3,11L8,11L8,22L11,22L11,11L22,11L22,8L11,8Z" style="fill:white;"/>
        </g>
        <g id="googlesheets.svg1" serif:id="googlesheets.svg">
        </g>
    </g>
</svg>
