<?xml version="1.0" encoding="UTF-8" standalone="no"?>
<!DOCTYPE svg PUBLIC "-//W3C//DTD SVG 1.1//EN" "http://www.w3.org/Graphics/SVG/1.1/DTD/svg11.dtd">
<svg width="100%" height="100%" viewBox="0 0 99 84" version="1.1" xmlns="http://www.w3.org/2000/svg" xmlns:xlink="http://www.w3.org/1999/xlink" xml:space="preserve" xmlns:serif="http://www.serif.com/" style="fill-rule:evenodd;clip-rule:evenodd;stroke-linejoin:round;stroke-miterlimit:2;">
    <g transform="matrix(2.70833,0,0,2.70833,49.5,42)">
        <g id="kofi.svg" transform="matrix(1,0,0,1,-12,-12)">
            <path d="M11.351,2.715C8.651,2.715 6.365,2.74 4.521,2.975C2.078,3.285 0,5.154 0,8.61C0,12.116 0.182,14.74 1.585,17.103C3.169,19.804 5.818,21.285 9.247,21.285L10.077,21.285C14.286,21.285 16.571,19.051 17.714,17.285C18.182,16.559 18.549,15.772 18.805,14.947C21.792,14.688 24,12.22 24,9.208L24,8.793C24,5.546 21.87,3.286 18.208,2.923C16.65,2.767 15.558,2.715 11.351,2.715M11.351,4.662C15.559,4.662 16.441,4.714 17.922,4.844C20.546,5.155 22.052,6.428 22.052,8.844L22.052,9.234C22.052,11.39 20.26,13.078 18.182,13.078L17.247,13.078L17.091,13.727C16.883,14.74 16.494,15.545 16.052,16.273C15.143,17.701 13.507,19.337 10.13,19.337L9.325,19.337C6.754,19.337 4.494,18.454 3.247,16.142C2.157,14.142 1.949,11.987 1.949,8.636C1.949,6.455 2.806,5.234 4.961,4.922C6.494,4.689 8.52,4.662 11.351,4.662M17.898,6.949C17.482,6.949 17.248,7.183 17.248,7.495L17.248,10.43C17.248,10.741 17.482,10.975 17.898,10.975C19.222,10.975 19.949,10.221 19.949,8.975C19.949,7.729 19.222,6.949 17.897,6.949M7.507,7.131C5.689,7.131 4.494,8.611 4.494,10.273C4.494,11.806 5.352,13.13 6.443,14.17C7.17,14.871 8.313,15.599 9.092,16.066C9.555,16.343 10.136,16.343 10.599,16.066C11.379,15.599 12.521,14.871 13.222,14.17C14.339,13.131 15.196,11.806 15.196,10.273C15.196,8.611 13.949,7.131 12.157,7.131C11.092,7.131 10.365,7.676 9.819,8.429C9.326,7.676 8.573,7.131 7.507,7.131" style="fill:white;fill-rule:nonzero;"/>
        </g>
        <g id="kofi.svg1" serif:id="kofi.svg">
        </g>
    </g>
</svg>
