<?xml version="1.0" encoding="UTF-8" standalone="no"?>
<!DOCTYPE svg PUBLIC "-//W3C//DTD SVG 1.1//EN" "http://www.w3.org/Graphics/SVG/1.1/DTD/svg11.dtd">
<svg width="100%" height="100%" viewBox="0 0 99 84" version="1.1" xmlns="http://www.w3.org/2000/svg" xmlns:xlink="http://www.w3.org/1999/xlink" xml:space="preserve" xmlns:serif="http://www.serif.com/" style="fill-rule:evenodd;clip-rule:evenodd;stroke-linejoin:round;stroke-miterlimit:2;">
    <g transform="matrix(2.70833,0,0,2.70833,49.5,42)">
        <g id="osu.svg" transform="matrix(1,0,0,1,-12,-12)">
            <path d="M7.698,10.362C7.513,10.144 7.279,9.972 6.998,9.846C6.717,9.72 6.387,9.657 6.01,9.657C5.633,9.657 5.306,9.72 5.028,9.846C4.749,9.972 4.519,10.144 4.336,10.362C4.154,10.581 4.016,10.839 3.923,11.139C3.831,11.438 3.784,11.758 3.784,12.099C3.784,12.44 3.831,12.757 3.923,13.051C4.016,13.344 4.154,13.6 4.336,13.818C4.519,14.037 4.749,14.207 5.028,14.33C5.306,14.452 5.633,14.514 6.01,14.514C6.387,14.514 6.717,14.452 6.998,14.33C7.279,14.207 7.513,14.037 7.698,13.818C7.884,13.6 8.021,13.344 8.111,13.051C8.201,12.757 8.246,12.44 8.246,12.099C8.246,11.758 8.201,11.438 8.111,11.139C8.021,10.839 7.884,10.581 7.698,10.362ZM6.733,13.172C6.586,13.42 6.346,13.544 6.01,13.544C5.681,13.544 5.443,13.42 5.297,13.172C5.15,12.923 5.077,12.566 5.077,12.099C5.077,11.632 5.15,11.275 5.297,11.026C5.443,10.778 5.681,10.654 6.01,10.654C6.346,10.654 6.586,10.778 6.733,11.026C6.88,11.275 6.953,11.632 6.953,12.099C6.953,12.566 6.88,12.923 6.733,13.172ZM18.622,12.341L18.533,7.952C18.761,7.916 18.992,7.898 19.224,7.898C19.457,7.898 19.691,7.916 19.924,7.952L19.834,12.341C19.625,12.377 19.424,12.395 19.233,12.395C19.028,12.395 18.824,12.377 18.622,12.341ZM19.942,13.742C19.942,13.963 19.924,14.185 19.888,14.406C19.672,14.441 19.452,14.459 19.233,14.46C19.01,14.46 18.788,14.442 18.569,14.406C18.533,14.189 18.515,13.97 18.515,13.751C18.515,13.535 18.533,13.314 18.569,13.086C18.785,13.051 19.004,13.033 19.224,13.032C19.439,13.032 19.661,13.051 19.888,13.086C19.924,13.314 19.942,13.532 19.942,13.742ZM16.719,9.711C16.929,9.711 17.141,9.729 17.357,9.765L17.357,14.226C17.165,14.292 16.912,14.357 16.598,14.419C16.284,14.482 15.956,14.514 15.615,14.514C15.31,14.514 15.017,14.49 14.735,14.442C14.454,14.394 14.207,14.292 13.995,14.137C13.782,13.981 13.613,13.754 13.488,13.454C13.362,13.155 13.299,12.757 13.299,12.261L13.299,9.765C13.51,9.729 13.723,9.711 13.937,9.711C14.146,9.711 14.358,9.729 14.574,9.765L14.574,12.225C14.574,12.47 14.593,12.672 14.632,12.831C14.671,12.989 14.731,13.115 14.812,13.208C14.892,13.3 14.996,13.368 15.112,13.405C15.232,13.444 15.373,13.463 15.534,13.463C15.756,13.463 15.941,13.442 16.091,13.401L16.091,9.765C16.299,9.73 16.509,9.712 16.719,9.711ZM12.357,12.395C12.411,12.545 12.438,12.727 12.438,12.943C12.438,13.164 12.391,13.371 12.298,13.562C12.206,13.754 12.071,13.92 11.895,14.06C11.718,14.201 11.504,14.312 11.253,14.393C11.001,14.473 10.717,14.514 10.4,14.514C10.268,14.514 10.136,14.51 10.005,14.5C9.889,14.492 9.774,14.477 9.659,14.455C9.549,14.435 9.44,14.409 9.332,14.379C9.213,14.346 9.096,14.307 8.982,14.263C8.994,14.097 9.023,13.933 9.067,13.773C9.112,13.609 9.17,13.448 9.242,13.293C9.44,13.371 9.626,13.429 9.803,13.468C9.98,13.507 10.164,13.527 10.355,13.527C10.439,13.527 10.53,13.519 10.629,13.504C10.724,13.49 10.816,13.463 10.903,13.423C10.983,13.387 11.054,13.335 11.114,13.271C11.17,13.208 11.199,13.126 11.199,13.024C11.199,12.88 11.155,12.777 11.069,12.714C10.982,12.651 10.861,12.596 10.705,12.548L10.149,12.386C9.813,12.291 9.552,12.149 9.363,11.96C9.175,11.772 9.08,11.489 9.08,11.112C9.08,10.657 9.243,10.301 9.57,10.044C9.896,9.786 10.34,9.658 10.903,9.658C11.136,9.658 11.366,9.679 11.594,9.72C11.821,9.762 12.052,9.825 12.285,9.909C12.273,10.065 12.243,10.226 12.195,10.394C12.147,10.561 12.09,10.708 12.025,10.833C11.87,10.77 11.711,10.717 11.549,10.676C11.37,10.631 11.186,10.608 11.001,10.609C10.798,10.609 10.639,10.64 10.525,10.703C10.412,10.766 10.355,10.866 10.355,11.004C10.355,11.136 10.395,11.228 10.476,11.282C10.557,11.336 10.672,11.387 10.822,11.435L11.333,11.588C11.501,11.636 11.652,11.694 11.787,11.763C11.921,11.831 12.036,11.917 12.132,12.018C12.228,12.12 12.303,12.246 12.357,12.395ZM12,0C5.373,0 0,5.373 0,12C0,18.627 5.373,24 12,24C18.628,24 24,18.627 24,12C24,5.373 18.628,0 12,0ZM12,22.8C6.035,22.8 1.2,17.965 1.2,12C1.2,6.035 6.035,1.2 12,1.2C17.965,1.2 22.8,6.035 22.8,12C22.8,17.965 17.965,22.8 12,22.8Z" style="fill:white;fill-rule:nonzero;"/>
        </g>
        <g id="osu.svg1" serif:id="osu.svg">
        </g>
    </g>
</svg>
