<?xml version="1.0" encoding="UTF-8" standalone="no"?>
<!DOCTYPE svg PUBLIC "-//W3C//DTD SVG 1.1//EN" "http://www.w3.org/Graphics/SVG/1.1/DTD/svg11.dtd">
<svg width="100%" height="100%" viewBox="0 0 155 46" version="1.1" xmlns="http://www.w3.org/2000/svg" xmlns:xlink="http://www.w3.org/1999/xlink" xml:space="preserve" xmlns:serif="http://www.serif.com/" style="fill-rule:evenodd;clip-rule:evenodd;stroke-linejoin:round;stroke-miterlimit:2;">
    <g transform="matrix(0.762163,0,0,0.762163,18.4324,5.46097)">
        <path d="M126.628,39.658L126.383,42.872C126.028,43.459 125.581,43.981 125.042,44.438C124.503,44.895 123.868,45.257 123.138,45.523C122.408,45.789 121.572,45.922 120.631,45.922C119.211,45.908 117.949,45.594 116.844,44.98C115.738,44.366 114.875,43.503 114.254,42.391C113.633,41.279 113.323,39.965 113.323,38.45C113.323,36.963 113.63,35.663 114.244,34.551C114.858,33.439 115.721,32.572 116.833,31.951C117.946,31.33 119.252,31.02 120.753,31.02C121.763,31.02 122.674,31.153 123.486,31.419C124.298,31.685 125.004,32.016 125.605,32.412L126.014,35.298L125.83,35.298C125.53,34.097 124.916,33.186 123.988,32.565C123.06,31.944 121.982,31.634 120.753,31.634C119.553,31.634 118.512,31.917 117.632,32.483C116.752,33.05 116.069,33.841 115.585,34.858C115.1,35.875 114.858,37.065 114.858,38.43C114.858,39.795 115.1,40.989 115.585,42.012C116.069,43.036 116.745,43.834 117.611,44.407C118.478,44.98 119.484,45.281 120.631,45.308C121.6,45.308 122.497,45.127 123.322,44.765C124.148,44.404 124.841,43.81 125.4,42.984C125.96,42.159 126.314,41.05 126.465,39.658L126.628,39.658ZM130.753,0C130.753,0 131.317,20.05 131.317,20.05L135.065,17.329L132.255,21.198L139.431,21.646L132.263,22.094L135.065,25.952L131.319,23.232L131.091,31.306L132.831,31.306L132.831,31.511L132.503,31.511C132.203,31.511 131.947,31.606 131.736,31.798C131.524,31.989 131.418,32.234 131.418,32.534L131.418,40.313C131.418,41.296 131.599,42.162 131.961,42.913C132.322,43.663 132.831,44.247 133.486,44.663C134.141,45.079 134.898,45.287 135.758,45.287C136.672,45.287 137.471,45.089 138.153,44.694C138.835,44.298 139.368,43.749 139.75,43.046C140.132,42.343 140.323,41.521 140.323,40.579L140.323,32.534C140.323,32.234 140.217,31.989 140.006,31.798C139.794,31.606 139.538,31.511 139.238,31.511L138.91,31.511L138.91,31.306L142.697,31.306L142.697,31.511L142.37,31.511C142.07,31.511 141.814,31.606 141.602,31.798C141.391,31.989 141.285,32.234 141.285,32.534L141.285,40.579C141.285,41.644 141.056,42.575 140.599,43.373C140.142,44.172 139.497,44.796 138.665,45.246C137.832,45.697 136.863,45.922 135.758,45.922C134.625,45.922 133.633,45.7 132.78,45.257C131.927,44.813 131.265,44.192 130.794,43.394L130.753,43.323C130.31,42.541 130.088,41.633 130.088,40.6L130.088,32.534C130.088,32.234 129.982,31.989 129.771,31.798C129.559,31.606 129.303,31.511 129.003,31.511L128.675,31.511L128.675,31.306L130.415,31.306L130.188,23.232L126.441,25.952L128.704,22.837L32.377,21.64L128.734,20.485L126.441,17.329L130.189,20.05L130.753,0ZM147.59,44.141C147.603,44.496 147.737,44.799 147.989,45.052C148.241,45.304 148.545,45.431 148.9,45.431L149.166,45.431L149.166,45.635L144.683,45.635L144.683,45.431L144.949,45.431C145.304,45.431 145.608,45.304 145.86,45.052C146.113,44.799 146.246,44.496 146.259,44.141L146.259,32.801C146.259,32.446 146.13,32.142 145.87,31.89C145.611,31.637 145.304,31.511 144.949,31.511L144.704,31.511L144.683,31.306L150.026,31.306C150.899,31.306 151.65,31.463 152.277,31.777C152.905,32.091 153.39,32.545 153.731,33.138C154.072,33.732 154.243,34.438 154.243,35.257C154.243,35.885 154.12,36.448 153.874,36.946C153.628,37.444 153.301,37.864 152.892,38.205C152.482,38.546 152.018,38.802 151.5,38.972C150.981,39.143 150.445,39.208 149.893,39.167C149.34,39.126 148.804,38.969 148.286,38.696L148.286,38.491C148.286,38.491 148.402,38.508 148.634,38.542C148.866,38.577 149.163,38.583 149.524,38.563C149.886,38.542 150.268,38.467 150.671,38.338C151.073,38.208 151.448,37.98 151.796,37.652C152.144,37.324 152.407,36.867 152.585,36.281C152.625,36.13 152.66,35.943 152.687,35.718C152.714,35.492 152.721,35.271 152.707,35.052C152.694,34.111 152.448,33.353 151.97,32.78C151.493,32.207 150.817,31.92 149.944,31.92L147.59,31.92L147.59,44.141ZM108.907,33.016L108.907,43.926L51.631,43.926L40.722,33.016L108.907,33.016ZM75.792,34.669L78.705,40.97L81.557,34.669L81.651,34.669L82.461,41.397C82.472,41.454 82.488,41.507 82.508,41.556C82.512,41.565 82.516,41.575 82.52,41.584C82.546,41.643 82.579,41.696 82.619,41.744L82.707,41.834L82.825,41.916L82.959,41.979L83.096,42.013L83.384,42.022L83.384,42.126L81.118,42.126L81.118,42.032L81.275,42.032C81.393,42.032 81.491,41.985 81.567,41.891C81.644,41.797 81.682,41.694 81.682,41.583L81.682,41.551L81.208,36.331L79.019,41.207C79.019,41.207 78.993,41.266 78.941,41.385C78.888,41.503 78.835,41.644 78.779,41.808C78.723,41.971 78.685,42.126 78.664,42.272L78.559,42.272L75.893,36.488L75.437,41.546L75.44,41.64L75.454,41.705C75.472,41.77 75.507,41.832 75.557,41.891L75.592,41.929C75.611,41.947 75.631,41.963 75.652,41.976C75.656,41.979 75.66,41.981 75.665,41.984C75.71,42.01 75.759,42.026 75.811,42.031L76.001,42.032L76.001,42.126L73.975,42.126L73.975,42.022L74.142,42.022C74.33,42.022 74.497,41.964 74.643,41.849C74.789,41.734 74.876,41.573 74.904,41.364L74.909,41.364L75.687,34.669L75.792,34.669ZM66.069,34.669L68.982,40.97L71.834,34.669L71.928,34.669L72.738,41.397L72.789,41.566C72.812,41.62 72.84,41.669 72.873,41.714L72.954,41.807L73.086,41.907C73.134,41.937 73.184,41.96 73.236,41.979L73.356,42.01L73.661,42.022L73.661,42.126L71.395,42.126L71.395,42.032L71.552,42.032C71.67,42.032 71.768,41.985 71.844,41.891C71.921,41.797 71.959,41.694 71.959,41.583L71.959,41.551L71.485,36.331L69.296,41.207C69.296,41.207 69.27,41.266 69.218,41.385C69.165,41.503 69.111,41.644 69.056,41.808C69,41.971 68.962,42.126 68.941,42.272L68.836,42.272L66.169,36.488L65.714,41.546L65.714,41.596C65.716,41.661 65.731,41.722 65.76,41.78L65.793,41.837L65.849,41.908L65.891,41.948L65.953,41.99C65.993,42.012 66.035,42.025 66.08,42.03L66.278,42.032L66.278,42.126L64.252,42.126L64.252,42.022L64.419,42.022C64.607,42.022 64.774,41.964 64.92,41.849C65.066,41.734 65.153,41.573 65.181,41.364L65.186,41.364L65.964,34.669L66.069,34.669ZM97.995,34.92L97.995,34.816L100.345,34.816L100.345,34.92L100.251,34.92C100.119,34.92 100.002,34.976 99.901,35.087C99.846,35.148 99.817,35.223 99.815,35.314L99.815,35.321C99.814,35.394 99.831,35.476 99.864,35.567L99.858,35.568L102.046,41.041L104.347,35.495C104.37,35.415 104.377,35.343 104.37,35.279C104.361,35.204 104.332,35.14 104.282,35.087C104.178,34.976 104.059,34.92 103.927,34.92L103.833,34.92L103.833,34.816L105.932,34.816L105.932,34.92L105.838,34.92C105.685,34.92 105.521,34.97 105.347,35.071C105.173,35.172 105.031,35.341 104.919,35.578L104.917,35.578L102.413,41.197L102.22,41.646C102.167,41.771 102.122,41.893 102.084,42.011C102.062,42.077 102.047,42.133 102.038,42.18C102.03,42.217 102.026,42.248 102.026,42.272L101.932,42.272L99.001,35.578L98.998,35.578C98.893,35.341 98.754,35.172 98.58,35.071C98.406,34.97 98.239,34.92 98.079,34.92L97.995,34.92ZM97.483,42.022L97.483,42.126L94.935,42.126L94.935,42.022L95.06,42.022C95.207,42.022 95.327,41.952 95.421,41.813C95.478,41.728 95.501,41.641 95.49,41.551C95.489,41.547 95.489,41.543 95.488,41.54C95.483,41.507 95.474,41.475 95.46,41.442L95.426,41.374L93.823,38.846L92.211,41.389C92.155,41.482 92.141,41.576 92.168,41.672L92.189,41.734C92.217,41.8 92.257,41.858 92.311,41.907C92.317,41.912 92.323,41.917 92.329,41.922C92.356,41.944 92.383,41.962 92.41,41.977C92.419,41.982 92.427,41.986 92.436,41.989C92.484,42.011 92.534,42.022 92.585,42.022L92.721,42.022L92.721,42.126L88.021,42.126L88.021,42.022L88.147,42.022C88.293,42.022 88.413,41.952 88.507,41.813C88.561,41.733 88.585,41.65 88.578,41.566C88.574,41.522 88.562,41.478 88.543,41.433L88.512,41.374L86.91,38.846L85.297,41.389C85.254,41.46 85.236,41.533 85.242,41.606L85.254,41.672L85.288,41.763L85.319,41.816C85.337,41.843 85.358,41.868 85.381,41.891L85.454,41.951L85.524,41.99C85.571,42.011 85.621,42.022 85.672,42.022L85.807,42.022L85.807,42.126L83.437,42.126L83.437,42.022L83.583,42.022C83.806,42.022 84.011,41.959 84.199,41.834C84.364,41.724 84.499,41.601 84.605,41.464L86.644,38.426L84.791,35.503L84.599,35.289L84.371,35.108L84.221,35.022C84.084,34.957 83.938,34.923 83.781,34.92L83.614,34.92L83.614,34.816L86.142,34.816L86.142,34.92L86.016,34.92C85.926,34.92 85.84,34.953 85.76,35.019C85.68,35.085 85.628,35.169 85.604,35.27C85.583,35.354 85.591,35.437 85.626,35.518L85.651,35.567L85.649,35.567L87.081,37.817L88.506,35.567L88.502,35.567C88.564,35.47 88.584,35.371 88.559,35.27C88.542,35.197 88.511,35.134 88.466,35.079L88.402,35.014L88.369,34.989C88.341,34.97 88.311,34.954 88.281,34.943C88.244,34.93 88.205,34.922 88.165,34.92L88.021,34.92L88.021,34.816L90.371,34.816L90.371,34.92L90.225,34.92C90.009,34.92 89.809,34.983 89.625,35.108C89.447,35.228 89.301,35.364 89.185,35.517L87.343,38.228L89.398,41.457L89.504,41.581L89.638,41.707L89.889,41.882L90.042,41.953L90.191,41.997L90.388,42.021L90.497,42.022C90.719,42.022 90.925,41.959 91.113,41.834C91.277,41.724 91.413,41.601 91.519,41.464L93.558,38.426L91.705,35.503L91.623,35.401C91.584,35.357 91.542,35.315 91.497,35.274L91.228,35.071C91.185,35.046 91.142,35.024 91.098,35.005C90.971,34.951 90.837,34.923 90.695,34.92L90.528,34.92L90.528,34.816L93.055,34.816L93.055,34.92L92.93,34.92C92.839,34.92 92.754,34.953 92.674,35.019C92.594,35.085 92.542,35.169 92.517,35.27C92.504,35.325 92.503,35.38 92.514,35.435C92.515,35.444 92.517,35.453 92.52,35.462C92.53,35.497 92.544,35.532 92.564,35.567L92.563,35.567L93.995,37.817L95.42,35.567L95.416,35.567C95.478,35.47 95.497,35.371 95.473,35.27C95.466,35.242 95.457,35.215 95.446,35.189C95.445,35.185 95.443,35.181 95.441,35.177C95.413,35.117 95.373,35.064 95.322,35.019L95.26,34.975C95.239,34.962 95.216,34.951 95.193,34.943L95.123,34.925L94.935,34.92L94.935,34.816L97.285,34.816L97.285,34.92L97.139,34.92C96.923,34.92 96.723,34.983 96.538,35.108C96.361,35.228 96.215,35.364 96.098,35.517L94.257,38.228L96.312,41.457C96.42,41.6 96.56,41.728 96.731,41.839C96.919,41.961 97.121,42.022 97.337,42.022L97.483,42.022ZM88.528,22.827L90.065,22.847C90.166,23.737 90.387,24.542 90.729,25.263C91.213,26.287 91.889,27.085 92.755,27.658C93.622,28.231 94.628,28.532 95.774,28.559C96.743,28.559 97.641,28.378 98.466,28.016C99.292,27.655 99.985,27.061 100.544,26.235C101.093,25.426 101.445,24.344 101.599,22.99L101.766,22.992L101.527,26.123C101.172,26.71 100.725,27.232 100.186,27.689C99.647,28.146 99.012,28.508 98.282,28.774C97.552,29.04 96.716,29.173 95.774,29.173C94.355,29.159 93.093,28.845 91.988,28.231C90.882,27.617 90.019,26.754 89.398,25.642C88.936,24.815 88.646,23.877 88.528,22.827ZM35.987,22.175L37.317,22.191L37.317,23.494C37.317,24.477 37.498,25.343 37.86,26.094C38.221,26.844 38.73,27.428 39.385,27.844C40.04,28.26 40.797,28.468 41.657,28.468C42.571,28.468 43.369,28.27 44.052,27.875C44.734,27.479 45.266,26.93 45.648,26.227C46.031,25.524 46.222,24.702 46.222,23.76L46.222,22.302L47.184,22.314L47.184,23.76C47.184,24.825 46.955,25.756 46.498,26.554C46.041,27.353 45.396,27.977 44.564,28.427C43.731,28.878 42.762,29.103 41.657,29.103C40.524,29.103 39.531,28.881 38.678,28.438C37.825,27.994 37.164,27.373 36.693,26.575C36.222,25.776 35.987,24.845 35.987,23.781L35.987,22.175ZM141.265,16.739C141.265,16.043 141.234,15.442 141.172,14.938C141.111,14.433 141.08,14.18 141.08,14.18L141.285,14.18L152.441,26.085L152.441,15.941C152.428,15.586 152.301,15.289 152.063,15.05C151.824,14.811 151.527,14.692 151.172,14.692L150.783,14.692L150.783,14.487L155,14.487L155,14.692L154.632,14.692C154.29,14.692 153.997,14.811 153.751,15.05C153.506,15.289 153.376,15.586 153.362,15.941L153.362,26.483C153.362,26.919 153.376,27.339 153.403,27.742C153.431,28.144 153.461,28.472 153.495,28.724C153.53,28.977 153.547,29.103 153.547,29.103L153.362,29.103L142.189,17.198L142.204,27.363L142.206,27.363C142.206,27.704 142.329,27.997 142.575,28.243C142.82,28.489 143.114,28.612 143.455,28.612L143.844,28.612L143.844,28.816L139.627,28.816L139.627,28.612L140.016,28.612C140.357,28.612 140.65,28.489 140.896,28.243C141.142,27.997 141.265,27.704 141.265,27.363L141.265,16.739ZM31.524,16.923L31.34,16.923C31.34,16.268 31.115,15.753 30.664,15.378C30.214,15.002 29.668,14.815 29.027,14.815C28.276,14.815 27.669,15.05 27.205,15.521C26.741,15.992 26.509,16.541 26.509,17.169C26.509,17.428 26.567,17.732 26.683,18.08C26.799,18.428 27.014,18.752 27.328,19.052L31.36,22.778C31.77,23.16 32.043,23.569 32.179,24.006C32.316,24.443 32.384,24.866 32.384,25.275C32.384,26.408 32.039,27.329 31.35,28.038C30.661,28.748 29.729,29.103 28.556,29.103C28.228,29.103 27.843,29.069 27.399,29.001C26.956,28.932 26.526,28.813 26.11,28.642C25.693,28.472 25.349,28.25 25.076,27.977C25.035,27.759 25.015,27.486 25.015,27.158C25.015,26.831 25.042,26.486 25.096,26.124C25.151,25.763 25.226,25.432 25.322,25.132L25.506,25.132C25.438,25.828 25.526,26.435 25.772,26.954C26.018,27.472 26.376,27.864 26.847,28.131C27.317,28.397 27.853,28.516 28.454,28.489C29.204,28.448 29.849,28.185 30.388,27.701C30.927,27.216 31.197,26.565 31.197,25.746C31.197,25.35 31.128,24.992 30.992,24.671C30.855,24.35 30.657,24.074 30.398,23.842L26.468,20.198C26.059,19.816 25.772,19.397 25.608,18.939C25.444,18.482 25.363,18.056 25.363,17.66C25.363,17.087 25.499,16.534 25.772,16.002C26.045,15.47 26.451,15.036 26.99,14.702C27.529,14.368 28.187,14.201 28.965,14.201C29.184,14.201 29.419,14.214 29.671,14.242C29.924,14.269 30.17,14.306 30.408,14.354C30.494,14.371 30.576,14.388 30.656,14.405L31.524,14.405L31.524,16.923ZM127.007,28.222L126.915,28.171C125.81,27.551 124.946,26.681 124.325,25.562C123.94,24.866 123.674,24.1 123.528,23.262L125.099,23.282C125.217,23.99 125.416,24.641 125.697,25.234C126.181,26.258 126.857,27.056 127.724,27.629L127.954,27.773C128.593,28.148 129.304,28.375 130.086,28.456L130.104,29.082C128.956,29.005 127.924,28.719 127.007,28.222ZM138.108,21.944C138.07,23.31 137.761,24.516 137.181,25.562C136.56,26.681 135.697,27.551 134.591,28.171C133.655,28.697 132.592,29 131.402,29.081L131.42,28.454C132.301,28.363 133.089,28.088 133.783,27.629C134.649,27.056 135.325,26.258 135.809,25.234C136.247,24.309 136.487,23.246 136.529,22.043L138.108,21.944ZM108.471,23.075L109.802,23.092L109.802,27.342C109.816,27.697 109.949,28.001 110.201,28.253C110.454,28.506 110.757,28.632 111.112,28.632L111.378,28.632L111.378,28.837L106.895,28.837L106.895,28.632L107.161,28.632C107.516,28.632 107.82,28.506 108.072,28.253C108.325,28.001 108.458,27.697 108.471,27.342L108.471,23.075ZM65.402,22.54L66.733,22.557L66.733,27.322C66.733,27.677 66.862,27.98 67.122,28.233C67.381,28.485 67.688,28.612 68.043,28.612L68.288,28.612L68.288,28.816L63.826,28.816L63.826,28.612L64.092,28.612C64.447,28.612 64.751,28.485 65.003,28.233C65.255,27.98 65.388,27.677 65.402,27.322L65.402,22.54ZM68.776,22.582L70.394,22.602C70.468,22.67 70.544,22.745 70.622,22.829C70.895,23.122 71.134,23.405 71.338,23.678C71.338,23.678 71.431,23.811 71.615,24.077C71.799,24.344 72.031,24.668 72.311,25.05C72.591,25.432 72.874,25.807 73.16,26.176C73.447,26.544 73.693,26.838 73.897,27.056C74.17,27.356 74.443,27.622 74.716,27.854C74.989,28.086 75.286,28.27 75.607,28.407C75.927,28.543 76.285,28.612 76.681,28.612L76.681,28.816L75.555,28.816C74.928,28.816 74.385,28.721 73.928,28.53C73.471,28.339 73.085,28.103 72.771,27.823C72.458,27.544 72.191,27.274 71.973,27.015C71.932,26.96 71.82,26.803 71.635,26.544C71.451,26.285 71.233,25.974 70.98,25.613L69.291,23.187C69.13,22.975 68.958,22.773 68.776,22.582ZM52.158,22.376L53.489,22.392L53.489,27.322C53.489,27.677 53.618,27.98 53.877,28.233C54.137,28.485 54.444,28.612 54.799,28.612L55.044,28.612L55.044,28.816L50.582,28.816L50.582,28.612L50.848,28.612C51.203,28.612 51.506,28.485 51.759,28.233C52.011,27.98 52.144,27.677 52.158,27.322L52.158,22.376ZM78.646,22.705L79.977,22.721L79.977,28.182L82.904,28.182C83.627,28.182 84.218,28.069 84.675,27.844C85.132,27.619 85.504,27.301 85.79,26.892C86.077,26.483 86.329,26.019 86.548,25.5L86.753,25.5L85.565,28.816L77.07,28.816L77.07,28.612L77.336,28.612C77.691,28.612 77.995,28.485 78.247,28.233C78.5,27.98 78.633,27.677 78.646,27.322L78.646,22.705ZM55.367,22.415L56.947,22.435C57.084,22.536 57.228,22.668 57.378,22.829C57.651,23.122 57.89,23.405 58.094,23.678C58.094,23.678 58.186,23.811 58.371,24.077C58.555,24.344 58.787,24.668 59.067,25.05C59.346,25.432 59.63,25.807 59.916,26.176C60.203,26.544 60.448,26.838 60.653,27.056C60.926,27.356 61.199,27.622 61.472,27.854C61.745,28.086 62.042,28.27 62.362,28.407C62.683,28.543 63.041,28.612 63.437,28.612L63.437,28.816L62.311,28.816C61.683,28.816 61.141,28.721 60.684,28.53C60.227,28.339 59.841,28.103 59.527,27.823C59.213,27.544 58.947,27.274 58.729,27.015C58.688,26.96 58.575,26.803 58.391,26.544C58.207,26.285 57.989,25.974 57.736,25.613L56.047,23.187C55.838,22.912 55.612,22.655 55.367,22.415ZM118.256,23.197L119.587,23.213L119.587,27.322C119.6,27.677 119.733,27.98 119.986,28.233C120.238,28.485 120.542,28.612 120.897,28.612L121.163,28.612L121.163,28.816L116.68,28.816L116.68,28.612L116.946,28.612C117.301,28.612 117.604,28.485 117.857,28.233C118.109,27.98 118.242,27.677 118.256,27.322L118.256,23.197ZM-0,28.816L-0,28.612L0.266,28.612C0.621,28.612 0.925,28.485 1.177,28.233C1.429,27.98 1.563,27.677 1.576,27.322L1.576,15.982C1.563,15.627 1.429,15.323 1.177,15.071C0.925,14.818 0.621,14.692 0.266,14.692L-0,14.692L-0,14.487L5.527,14.487C6.141,14.487 6.697,14.576 7.195,14.753C7.693,14.931 8.113,15.187 8.454,15.521C8.795,15.855 9.058,16.258 9.242,16.729C9.427,17.199 9.519,17.735 9.519,18.336C9.519,18.991 9.365,19.618 9.058,20.219C8.751,20.819 8.335,21.307 7.809,21.682C7.284,22.058 6.694,22.245 6.039,22.245C6.271,22.341 6.523,22.535 6.796,22.829C7.069,23.122 7.308,23.405 7.513,23.678C7.513,23.678 7.605,23.811 7.789,24.077C7.973,24.344 8.205,24.668 8.485,25.05C8.765,25.432 9.048,25.807 9.334,26.176C9.621,26.544 9.867,26.838 10.071,27.056C10.344,27.356 10.617,27.622 10.89,27.854C11.163,28.086 11.46,28.27 11.781,28.407C12.101,28.543 12.46,28.612 12.855,28.612L12.855,28.816L11.729,28.816C11.102,28.816 10.559,28.721 10.102,28.53C9.645,28.339 9.259,28.103 8.945,27.823C8.632,27.544 8.365,27.274 8.147,27.015C8.106,26.96 7.994,26.803 7.809,26.544C7.625,26.285 7.407,25.974 7.154,25.613L5.466,23.187C5.206,22.846 4.92,22.532 4.606,22.245C4.292,21.959 3.951,21.815 3.582,21.815L3.582,21.611C3.582,21.611 3.688,21.614 3.9,21.621C4.111,21.628 4.367,21.624 4.667,21.611C5.022,21.597 5.411,21.543 5.834,21.447C6.257,21.352 6.653,21.154 7.021,20.853C7.39,20.553 7.669,20.096 7.861,19.482C7.901,19.332 7.936,19.144 7.963,18.919C7.99,18.694 7.997,18.472 7.983,18.254C7.97,17.326 7.734,16.585 7.277,16.033C6.82,15.48 6.209,15.183 5.445,15.142C5.063,15.115 4.671,15.105 4.268,15.112C3.865,15.118 3.528,15.122 3.255,15.122L2.907,15.122L2.907,27.322C2.907,27.677 3.036,27.98 3.296,28.233C3.555,28.485 3.862,28.612 4.217,28.612L4.462,28.612L4.462,28.816L-0,28.816ZM21.678,16.698L21.473,16.698L21.473,16.329C21.473,16.002 21.357,15.719 21.125,15.48C20.938,15.287 20.715,15.168 20.457,15.122L16.151,15.122L16.151,21.447L19.61,21.447C19.883,21.433 20.115,21.328 20.306,21.13C20.497,20.932 20.593,20.696 20.593,20.424L20.593,20.137L20.798,20.137L20.798,23.371L20.593,23.371L20.593,23.064C20.593,22.791 20.497,22.556 20.306,22.358C20.115,22.16 19.883,22.061 19.61,22.061L16.151,22.061L16.151,28.182L19.078,28.182C19.801,28.182 20.392,28.069 20.849,27.844C21.306,27.619 21.678,27.301 21.964,26.892C22.251,26.483 22.504,26.019 22.722,25.5L22.927,25.5L21.739,28.816L13.244,28.816L13.244,28.612L13.51,28.612C13.865,28.612 14.169,28.485 14.421,28.233C14.674,27.98 14.807,27.677 14.82,27.322L14.82,15.982C14.82,15.627 14.691,15.323 14.431,15.071C14.172,14.818 13.865,14.692 13.51,14.692L13.265,14.692L13.244,14.487L19.181,14.487C19.481,14.487 19.798,14.467 20.132,14.426C20.467,14.385 20.777,14.337 21.064,14.282C21.35,14.228 21.555,14.173 21.678,14.119L21.678,16.698ZM84.379,22.776L84.624,22.779L84.624,23.371L84.419,23.371L84.419,23.064C84.419,22.963 84.406,22.867 84.379,22.776ZM131.42,14.849L131.402,14.223C132.371,14.288 133.256,14.501 134.057,14.862L134.447,15.053C134.495,15.079 134.543,15.105 134.591,15.132C135.697,15.753 136.56,16.623 137.181,17.742C137.757,18.781 138.066,19.979 138.107,21.336L136.528,21.238C136.484,20.044 136.244,18.988 135.809,18.069C135.325,17.046 134.649,16.248 133.783,15.674C133.578,15.539 133.364,15.419 133.143,15.316L132.925,15.22C132.458,15.028 131.956,14.905 131.42,14.849ZM35.987,21.108L35.987,15.715C35.987,15.415 35.881,15.17 35.669,14.978C35.458,14.787 35.202,14.692 34.902,14.692L34.574,14.692L34.574,14.487L38.73,14.487L38.73,14.692L38.402,14.692C38.102,14.692 37.846,14.787 37.634,14.978C37.423,15.17 37.317,15.415 37.317,15.715L37.317,21.092L35.987,21.108ZM46.222,20.985L46.222,15.715C46.222,15.415 46.116,15.17 45.904,14.978C45.693,14.787 45.437,14.692 45.137,14.692L44.809,14.692L44.809,14.487L48.596,14.487L48.596,14.692L48.269,14.692C47.968,14.692 47.713,14.787 47.501,14.978C47.289,15.17 47.184,15.415 47.184,15.715L47.184,20.974L46.222,20.985ZM52.158,20.914L52.158,15.982C52.144,15.627 52.011,15.323 51.759,15.071C51.506,14.818 51.203,14.692 50.848,14.692L50.582,14.692L50.582,14.487L56.109,14.487C56.723,14.487 57.279,14.576 57.777,14.753C58.275,14.931 58.695,15.187 59.036,15.521C59.377,15.855 59.64,16.258 59.824,16.729C60.008,17.199 60.1,17.735 60.1,18.336C60.1,18.991 59.947,19.618 59.64,20.219C59.528,20.437 59.402,20.64 59.262,20.829L57.609,20.849C57.974,20.549 58.252,20.093 58.442,19.482C58.483,19.332 58.517,19.144 58.545,18.919C58.572,18.694 58.579,18.472 58.565,18.254C58.551,17.326 58.316,16.585 57.859,16.033C57.402,15.48 56.791,15.183 56.027,15.142C55.645,15.115 55.252,15.105 54.85,15.112C54.447,15.118 54.109,15.122 53.837,15.122L53.489,15.122L53.489,20.898L52.158,20.914ZM65.402,20.755L65.402,15.982C65.388,15.627 65.255,15.323 65.003,15.071C64.751,14.818 64.447,14.692 64.092,14.692L63.826,14.692L63.826,14.487L69.353,14.487C69.967,14.487 70.523,14.576 71.021,14.753C71.519,14.931 71.939,15.187 72.28,15.521C72.621,15.855 72.884,16.258 73.068,16.729C73.252,17.199 73.345,17.735 73.345,18.336C73.345,18.991 73.191,19.618 72.884,20.219C72.803,20.377 72.715,20.527 72.619,20.669L71.026,20.688C71.308,20.394 71.528,19.992 71.686,19.482C71.727,19.332 71.762,19.144 71.789,18.919C71.816,18.694 71.823,18.472 71.809,18.254C71.796,17.326 71.56,16.585 71.103,16.033C70.646,15.48 70.035,15.183 69.271,15.142C68.889,15.115 68.497,15.105 68.094,15.112C67.691,15.118 67.354,15.122 67.081,15.122L66.733,15.122L66.733,20.739L65.402,20.755ZM78.646,20.597L78.646,15.982C78.646,15.627 78.517,15.323 78.257,15.071C77.998,14.818 77.691,14.692 77.336,14.692L77.091,14.692L77.07,14.487L83.006,14.487C83.307,14.487 83.624,14.467 83.958,14.426C84.293,14.385 84.603,14.337 84.89,14.282C85.176,14.228 85.381,14.173 85.504,14.119L85.504,16.698L85.299,16.698L85.299,16.329C85.299,16.002 85.183,15.719 84.951,15.48C84.764,15.287 84.541,15.168 84.283,15.122L79.977,15.122L79.977,20.581L78.646,20.597ZM84.624,20.525L84.414,20.528L84.419,20.137L84.624,20.137L84.624,20.525ZM88.541,20.478C88.666,19.49 88.948,18.598 89.388,17.802C90.002,16.69 90.865,15.823 91.977,15.202C93.089,14.581 94.396,14.271 95.897,14.271C96.907,14.271 97.818,14.404 98.63,14.67C99.442,14.936 100.148,15.267 100.749,15.663L101.158,18.549L100.974,18.549C100.674,17.348 100.06,16.437 99.132,15.816C98.204,15.195 97.126,14.885 95.897,14.885C94.696,14.885 93.656,15.168 92.776,15.734C91.895,16.301 91.213,17.092 90.729,18.109C90.395,18.81 90.176,19.593 90.072,20.46L88.541,20.478ZM108.471,20.239L108.471,15.101L104.623,15.101C104.282,15.115 103.995,15.238 103.763,15.47C103.531,15.702 103.415,15.988 103.415,16.329L103.415,16.677L103.211,16.698L103.211,14.119C103.347,14.173 103.555,14.228 103.835,14.282C104.115,14.337 104.425,14.385 104.766,14.426C105.107,14.467 105.421,14.487 105.708,14.487L112.565,14.487C112.866,14.487 113.183,14.467 113.517,14.426C113.852,14.385 114.162,14.337 114.449,14.282C114.735,14.228 114.94,14.173 115.063,14.119L115.063,16.698L114.858,16.677L114.858,16.329C114.858,15.988 114.739,15.702 114.5,15.47C114.261,15.238 113.978,15.115 113.65,15.101L109.802,15.101L109.802,20.223L108.471,20.239ZM118.256,20.122L118.256,15.982C118.242,15.627 118.109,15.323 117.857,15.071C117.604,14.818 117.301,14.692 116.946,14.692L116.68,14.692L116.68,14.487L121.163,14.487L121.163,14.692L120.897,14.692C120.542,14.692 120.238,14.818 119.986,15.071C119.733,15.323 119.6,15.627 119.587,15.982L119.587,20.106L118.256,20.122ZM130.104,14.222L130.087,14.848C129.208,14.938 128.421,15.213 127.724,15.674C126.857,16.248 126.181,17.046 125.697,18.069C125.414,18.668 125.213,19.325 125.096,20.04L123.525,20.059C123.67,19.214 123.937,18.442 124.325,17.742C124.946,16.623 125.81,15.753 126.915,15.132C127.855,14.604 128.918,14.301 130.104,14.222Z"/>
    </g>
</svg>
